<svg width="17" height="29" viewBox="0 0 17 29" fill="none" xmlns="http://www.w3.org/2000/svg">
<path d="M13.0573 27.7708L0.770815 15.5208C0.624982 15.375 0.52144 15.217 0.46019 15.0469C0.39894 14.8767 0.368802 14.6944 0.369774 14.5C0.369774 14.3056 0.399912 14.1233 0.46019 13.9531C0.520468 13.783 0.624009 13.625 0.770815 13.4792L13.0573 1.19271C13.3976 0.852428 13.8229 0.682289 14.3333 0.682289C14.8437 0.682289 15.2812 0.864581 15.6458 1.22916C16.0104 1.59375 16.1927 2.01909 16.1927 2.50521C16.1927 2.99132 16.0104 3.41666 15.6458 3.78125L4.92707 14.5L15.6458 25.2187C15.9861 25.559 16.1562 25.9785 16.1562 26.4773C16.1562 26.976 15.9739 27.4072 15.6094 27.7708C15.2448 28.1354 14.8194 28.3177 14.3333 28.3177C13.8472 28.3177 13.4219 28.1354 13.0573 27.7708Z" fill="#327ACE"/>
</svg>
