<svg width="184" height="50" viewBox="0 0 184 50" fill="none" xmlns="http://www.w3.org/2000/svg">
<rect x="0.5" y="0.5" width="69" height="49" rx="15.5" fill="white"/>
<path d="M15.68 36.32C14.4853 36.32 13.408 36 12.448 35.36C11.488 34.6987 10.7307 33.7387 10.176 32.48C9.64267 31.2 9.376 29.6427 9.376 27.808C9.376 24.7787 10.144 22.5067 11.68 20.992C13.216 19.4773 15.3493 18.72 18.08 18.72C18.6133 18.72 19.1573 18.7627 19.712 18.848C20.288 18.912 20.8747 19.0187 21.472 19.168L20.832 19.52V13.472L21.152 13.856L18.304 13.152V11.456L24.032 11.232V34.112L23.616 33.6L26.432 34.272V35.968L21.568 36.192L21.12 33.44L21.472 33.568C20.512 34.4853 19.552 35.1787 18.592 35.648C17.6533 36.096 16.6827 36.32 15.68 36.32ZM16.864 33.92C17.5467 33.92 18.2507 33.7387 18.976 33.376C19.7227 33.0133 20.48 32.4693 21.248 31.744L20.832 32.768V20.832L21.248 21.6C20.0533 21.2373 18.9653 21.056 17.984 21.056C16.2347 21.056 14.912 21.632 14.016 22.784C13.1413 23.9147 12.704 25.4933 12.704 27.52C12.704 28.8427 12.8747 29.984 13.216 30.944C13.5787 31.904 14.0693 32.64 14.688 33.152C15.328 33.664 16.0533 33.92 16.864 33.92ZM35.9258 36.32C34.4538 36.32 33.1524 36 32.0218 35.36C30.9124 34.6987 30.0378 33.7387 29.3978 32.48C28.7791 31.2 28.4698 29.6427 28.4698 27.808C28.4698 25.9307 28.7898 24.32 29.4298 22.976C30.0911 21.6107 31.0191 20.5653 32.2138 19.84C33.4298 19.0933 34.8484 18.72 36.4698 18.72C38.0271 18.72 39.2964 19.04 40.2778 19.68C41.2804 20.32 42.0164 21.2053 42.4858 22.336C42.9764 23.4453 43.2218 24.7147 43.2218 26.144C43.2218 26.4213 43.2111 26.6987 43.1898 26.976C43.1684 27.2533 43.1364 27.5733 43.0938 27.936H30.9658V25.728H40.2138L39.9258 25.92C39.9471 25.0453 39.8404 24.2453 39.6058 23.52C39.3711 22.7947 38.9764 22.2187 38.4218 21.792C37.8671 21.344 37.1311 21.12 36.2138 21.12C35.2111 21.12 34.3791 21.3973 33.7178 21.952C33.0564 22.4853 32.5658 23.2213 32.2458 24.16C31.9258 25.0987 31.7658 26.176 31.7658 27.392C31.7658 28.6933 31.9471 29.8347 32.3098 30.816C32.6724 31.776 33.2164 32.5333 33.9418 33.088C34.6884 33.6213 35.6058 33.888 36.6938 33.888C37.4618 33.888 38.2938 33.7387 39.1898 33.44C40.1071 33.1413 41.0458 32.6933 42.0058 32.096L43.1258 33.856C41.9311 34.688 40.7151 35.3067 39.4778 35.712C38.2618 36.1173 37.0778 36.32 35.9258 36.32ZM54.304 19.136L61.184 18.912V20.608L59.104 21.312L59.616 20.768L54.144 36.064H50.4L45.44 20.864L45.952 21.312L43.84 20.832V19.136L51.168 18.912V20.608L48.448 21.216L48.704 20.768L52.672 34.016H52.384L56.672 20.896L56.896 21.216L54.304 20.832V19.136Z" fill="#081423"/>
<rect x="0.5" y="0.5" width="69" height="49" rx="15.5" stroke="black"/>
<rect x="70.5" y="0.5" width="43" height="49" rx="15.5" fill="white"/>
<path d="M92.688 34.272L92.208 33.6L95.088 34.272V35.968L90.224 36.192L89.776 33.12L90.032 33.216C89.1147 34.2613 88.1227 35.04 87.056 35.552C85.9893 36.064 84.9547 36.32 83.952 36.32C82.7147 36.32 81.648 35.9147 80.752 35.104C79.8773 34.2933 79.44 33.0773 79.44 31.456C79.44 30.2187 79.7067 29.2587 80.24 28.576C80.7733 27.872 81.52 27.3707 82.48 27.072C83.44 26.7733 84.5707 26.624 85.872 26.624H89.776L89.488 26.976V24.224C89.488 23.1147 89.2 22.3253 88.624 21.856C88.048 21.3653 87.248 21.12 86.224 21.12C85.6907 21.12 85.1253 21.1733 84.528 21.28C83.952 21.3867 83.3227 21.5573 82.64 21.792L83.088 21.344L82.736 24.192H80.624L80.368 19.936C81.6693 19.5307 82.864 19.232 83.952 19.04C85.0613 18.8267 86.0853 18.72 87.024 18.72C88.816 18.72 90.2027 19.1147 91.184 19.904C92.1867 20.6933 92.688 21.9413 92.688 23.648V34.272ZM82.672 31.232C82.672 32.1493 82.896 32.832 83.344 33.28C83.792 33.7067 84.3573 33.92 85.04 33.92C85.7227 33.92 86.4693 33.7067 87.28 33.28C88.112 32.832 88.912 32.2453 89.68 31.52L89.488 32.32V28.352L89.776 28.672H86.384C84.976 28.672 84.0053 28.8853 83.472 29.312C82.9387 29.7387 82.672 30.3787 82.672 31.232ZM102.313 34.048L102.025 33.664L104.713 34.304V36H96.745V34.304L99.433 33.664L99.113 34.048V21.152L99.401 21.44L96.745 20.832V19.136L102.313 18.944V34.048ZM100.553 15.808C99.977 15.808 99.497 15.6267 99.113 15.264C98.7503 14.9013 98.569 14.3893 98.569 13.728C98.569 13.0453 98.761 12.5333 99.145 12.192C99.529 11.8293 100.009 11.648 100.585 11.648C101.182 11.648 101.662 11.8293 102.025 12.192C102.409 12.5333 102.601 13.0453 102.601 13.728C102.601 14.4107 102.398 14.9333 101.993 15.296C101.609 15.6373 101.129 15.808 100.553 15.808Z" fill="#081423"/>
<rect x="70.5" y="0.5" width="43" height="49" rx="15.5" stroke="black"/>
<rect x="114.5" y="0.5" width="69" height="49" rx="15.5" fill="white"/>
<path d="M129.68 36.32C128.485 36.32 127.408 36 126.448 35.36C125.488 34.6987 124.731 33.7387 124.176 32.48C123.643 31.2 123.376 29.6427 123.376 27.808C123.376 24.7787 124.144 22.5067 125.68 20.992C127.216 19.4773 129.349 18.72 132.08 18.72C132.613 18.72 133.157 18.7627 133.712 18.848C134.288 18.912 134.875 19.0187 135.472 19.168L134.832 19.52V13.472L135.152 13.856L132.304 13.152V11.456L138.032 11.232V34.112L137.616 33.6L140.432 34.272V35.968L135.568 36.192L135.12 33.44L135.472 33.568C134.512 34.4853 133.552 35.1787 132.592 35.648C131.653 36.096 130.683 36.32 129.68 36.32ZM130.864 33.92C131.547 33.92 132.251 33.7387 132.976 33.376C133.723 33.0133 134.48 32.4693 135.248 31.744L134.832 32.768V20.832L135.248 21.6C134.053 21.2373 132.965 21.056 131.984 21.056C130.235 21.056 128.912 21.632 128.016 22.784C127.141 23.9147 126.704 25.4933 126.704 27.52C126.704 28.8427 126.875 29.984 127.216 30.944C127.579 31.904 128.069 32.64 128.688 33.152C129.328 33.664 130.053 33.92 130.864 33.92ZM149.926 36.32C148.454 36.32 147.152 36 146.022 35.36C144.912 34.6987 144.038 33.7387 143.398 32.48C142.779 31.2 142.47 29.6427 142.47 27.808C142.47 25.9307 142.79 24.32 143.43 22.976C144.091 21.6107 145.019 20.5653 146.214 19.84C147.43 19.0933 148.848 18.72 150.47 18.72C152.027 18.72 153.296 19.04 154.278 19.68C155.28 20.32 156.016 21.2053 156.486 22.336C156.976 23.4453 157.222 24.7147 157.222 26.144C157.222 26.4213 157.211 26.6987 157.19 26.976C157.168 27.2533 157.136 27.5733 157.094 27.936H144.966V25.728H154.214L153.926 25.92C153.947 25.0453 153.84 24.2453 153.606 23.52C153.371 22.7947 152.976 22.2187 152.422 21.792C151.867 21.344 151.131 21.12 150.214 21.12C149.211 21.12 148.379 21.3973 147.718 21.952C147.056 22.4853 146.566 23.2213 146.246 24.16C145.926 25.0987 145.766 26.176 145.766 27.392C145.766 28.6933 145.947 29.8347 146.31 30.816C146.672 31.776 147.216 32.5333 147.942 33.088C148.688 33.6213 149.606 33.888 150.694 33.888C151.462 33.888 152.294 33.7387 153.19 33.44C154.107 33.1413 155.046 32.6933 156.006 32.096L157.126 33.856C155.931 34.688 154.715 35.3067 153.478 35.712C152.262 36.1173 151.078 36.32 149.926 36.32ZM168.304 19.136L175.184 18.912V20.608L173.104 21.312L173.616 20.768L168.144 36.064H164.4L159.44 20.864L159.952 21.312L157.84 20.832V19.136L165.168 18.912V20.608L162.448 21.216L162.704 20.768L166.672 34.016H166.384L170.672 20.896L170.896 21.216L168.304 20.832V19.136Z" fill="#081423"/>
<rect x="114.5" y="0.5" width="69" height="49" rx="15.5" stroke="black"/>
</svg>
