<svg width="170" height="45" viewBox="0 0 170 45" fill="none" xmlns="http://www.w3.org/2000/svg">
<rect x="0.478261" y="0.478261" width="64.3478" height="43.6957" rx="14.8261" fill="white"/>
<path d="M19.3755 22.1335C18.947 21.6132 18.4776 21.2459 17.9675 21.0316C17.4675 20.8174 16.9268 20.7102 16.3452 20.7102C15.7739 20.7102 15.2586 20.8174 14.7995 21.0316C14.3403 21.2459 13.9475 21.5724 13.621 22.0111C13.2945 22.4396 13.0446 22.9906 12.8711 23.664C12.6977 24.3272 12.611 25.1128 12.611 26.0208C12.611 26.9391 12.6824 27.7196 12.8252 28.3624C12.9783 28.995 13.1925 29.5153 13.468 29.9234C13.7435 30.3214 14.0802 30.6121 14.4781 30.7958C14.876 30.9692 15.3198 31.056 15.8096 31.056C16.5952 31.056 17.2635 30.8927 17.8144 30.5662C18.3654 30.2397 18.8857 29.7755 19.3755 29.1735V22.1335ZM23.1556 11.0838V33.826H20.8447C20.3448 33.826 20.0285 33.5965 19.8958 33.1374L19.5744 31.6222C18.9419 32.3466 18.2123 32.9333 17.3859 33.3822C16.5697 33.8312 15.6157 34.0556 14.524 34.0556C13.667 34.0556 12.8813 33.8771 12.1671 33.52C11.4529 33.1629 10.8356 32.6476 10.3153 31.9742C9.80516 31.2906 9.40724 30.4489 9.12156 29.449C8.84608 28.4491 8.70834 27.3064 8.70834 26.0208C8.70834 24.8577 8.86649 23.7762 9.18278 22.7763C9.49907 21.7764 9.9531 20.9092 10.5449 20.1746C11.1366 19.44 11.8457 18.8686 12.6722 18.4605C13.4986 18.0422 14.4271 17.833 15.4576 17.833C16.335 17.833 17.0849 17.9707 17.7073 18.2462C18.3297 18.5217 18.8857 18.8941 19.3755 19.3634V11.0838H23.1556ZM37.0025 24.169C37.0025 23.6793 36.9311 23.2201 36.7882 22.7916C36.6556 22.3529 36.4515 21.9703 36.1761 21.6438C35.9006 21.3173 35.5486 21.0622 35.1201 20.8786C34.7017 20.6847 34.212 20.5878 33.6508 20.5878C32.5591 20.5878 31.697 20.899 31.0644 21.5214C30.442 22.1437 30.0441 23.0263 29.8707 24.169H37.0025ZM29.7941 26.4494C29.8554 27.2554 29.9982 27.9543 30.2227 28.546C30.4471 29.1276 30.743 29.6123 31.1103 30C31.4776 30.3775 31.9112 30.6632 32.4112 30.857C32.9213 31.0407 33.4825 31.1325 34.0947 31.1325C34.7068 31.1325 35.2323 31.0611 35.671 30.9182C36.1199 30.7754 36.5077 30.6172 36.8341 30.4438C37.1708 30.2703 37.4616 30.1122 37.7065 29.9694C37.9616 29.8265 38.2064 29.7551 38.4411 29.7551C38.7574 29.7551 38.9921 29.8724 39.1451 30.1071L40.2317 31.4845C39.8134 31.9742 39.3441 32.3874 38.8237 32.7241C38.3034 33.0506 37.7575 33.3159 37.1861 33.52C36.625 33.7138 36.0485 33.8516 35.4568 33.9332C34.8752 34.0148 34.3089 34.0556 33.758 34.0556C32.6663 34.0556 31.6511 33.8771 30.7124 33.52C29.7737 33.1527 28.9575 32.617 28.2637 31.913C27.5699 31.1988 27.0241 30.3214 26.6261 29.2807C26.2282 28.2298 26.0293 27.0156 26.0293 25.6382C26.0293 24.5669 26.2027 23.5619 26.5496 22.6233C26.8965 21.6744 27.3914 20.8531 28.0341 20.1593C28.6871 19.4553 29.4779 18.8992 30.4063 18.4911C31.345 18.083 32.401 17.8789 33.5743 17.8789C34.564 17.8789 35.4772 18.0371 36.3138 18.3534C37.1504 18.6696 37.8697 19.1339 38.4717 19.746C39.0737 20.348 39.543 21.0928 39.8797 21.9805C40.2266 22.8579 40.4001 23.8629 40.4001 24.9954C40.4001 25.5668 40.3388 25.9545 40.2164 26.1586C40.094 26.3524 39.8593 26.4494 39.5124 26.4494H29.7941ZM57.0048 18.1238L50.7759 33.826H47.3478L41.1189 18.1238H44.241C44.5267 18.1238 44.7613 18.1901 44.945 18.3227C45.1388 18.4554 45.2664 18.6237 45.3276 18.8278L48.3578 27.2146C48.5211 27.7043 48.6639 28.1838 48.7864 28.6532C48.9088 29.1225 49.0159 29.5918 49.1078 30.0612C49.2098 29.5918 49.322 29.1225 49.4445 28.6532C49.5669 28.1838 49.7148 27.7043 49.8883 27.2146L52.9798 18.8278C53.0512 18.6237 53.1787 18.4554 53.3624 18.3227C53.546 18.1901 53.7654 18.1238 54.0205 18.1238H57.0048Z" fill="#081423"/>
<rect x="0.478261" y="0.478261" width="64.3478" height="43.6957" rx="14.8261" stroke="black" stroke-width="0.956522"/>
<rect x="65.7829" y="0.478261" width="38.3478" height="43.6957" rx="14.8261" fill="white"/>
<path d="M83.1191 27.1228C82.0274 27.1738 81.1091 27.2707 80.3643 27.4136C79.6195 27.5462 79.0227 27.7197 78.5737 27.9339C78.1248 28.1482 77.8034 28.3982 77.6096 28.6838C77.4157 28.9695 77.3188 29.2807 77.3188 29.6174C77.3188 30.2806 77.5126 30.755 77.9003 31.0407C78.2982 31.3264 78.8135 31.4692 79.4461 31.4692C80.2215 31.4692 80.8898 31.3315 81.4509 31.056C82.0223 30.7703 82.5784 30.3418 83.1191 29.7705V27.1228ZM74.4569 20.3124C76.2628 18.6595 78.436 17.8331 80.9765 17.8331C81.8948 17.8331 82.7161 17.9861 83.4405 18.2922C84.1649 18.5881 84.7771 19.0064 85.277 19.5472C85.777 20.0777 86.1545 20.7154 86.4096 21.4602C86.6748 22.205 86.8075 23.0212 86.8075 23.9089V33.8261H85.0934C84.7363 33.8261 84.4608 33.7751 84.2669 33.6731C84.0731 33.5608 83.92 33.3415 83.8078 33.015L83.4711 31.8825C83.0732 32.2396 82.6855 32.5558 82.308 32.8313C81.9305 33.0966 81.5377 33.3211 81.1296 33.5047C80.7214 33.6884 80.2827 33.8261 79.8134 33.9179C79.3542 34.02 78.8441 34.071 78.2829 34.071C77.6198 34.071 77.0076 33.9843 76.4464 33.8108C75.8853 33.6272 75.4006 33.3568 74.9925 32.9997C74.5844 32.6426 74.2681 32.1987 74.0436 31.6682C73.8192 31.1376 73.7069 30.5204 73.7069 29.8164C73.7069 29.4185 73.7733 29.0256 73.9059 28.6379C74.0385 28.24 74.2528 27.8625 74.5487 27.5054C74.8548 27.1483 75.2476 26.8116 75.7271 26.4953C76.2067 26.179 76.7933 25.9036 77.4871 25.6689C78.1911 25.4342 79.0074 25.2455 79.9358 25.1026C80.8643 24.9496 81.9254 24.8578 83.1191 24.8272V23.9089C83.1191 22.858 82.8947 22.0826 82.4457 21.5826C81.9968 21.0725 81.3489 20.8174 80.5021 20.8174C79.8899 20.8174 79.3798 20.8888 78.9716 21.0317C78.5737 21.1745 78.2217 21.3378 77.9156 21.5214C77.6096 21.6949 77.329 21.853 77.0739 21.9958C76.829 22.1387 76.5536 22.2101 76.2475 22.2101C75.9822 22.2101 75.7577 22.1438 75.5741 22.0112C75.3904 21.8683 75.2425 21.7051 75.1302 21.5214L74.4569 20.3124ZM94.2856 18.1238V33.8261H90.4901V18.1238H94.2856ZM94.8059 13.5478C94.8059 13.8743 94.7396 14.1804 94.6069 14.4661C94.4743 14.7518 94.2958 15.0018 94.0713 15.216C93.857 15.4303 93.602 15.6037 93.3061 15.7364C93.0102 15.8588 92.6939 15.92 92.3572 15.92C92.0307 15.92 91.7195 15.8588 91.4236 15.7364C91.138 15.6037 90.888 15.4303 90.6737 15.216C90.4595 15.0018 90.286 14.7518 90.1534 14.4661C90.0309 14.1804 89.9697 13.8743 89.9697 13.5478C89.9697 13.2112 90.0309 12.8949 90.1534 12.599C90.286 12.3031 90.4595 12.048 90.6737 11.8338C90.888 11.6195 91.138 11.4512 91.4236 11.3287C91.7195 11.1961 92.0307 11.1298 92.3572 11.1298C92.6939 11.1298 93.0102 11.1961 93.3061 11.3287C93.602 11.4512 93.857 11.6195 94.0713 11.8338C94.2958 12.048 94.4743 12.3031 94.6069 12.599C94.7396 12.8949 94.8059 13.2112 94.8059 13.5478Z" fill="#081423"/>
<rect x="65.7829" y="0.478261" width="38.3478" height="43.6957" rx="14.8261" stroke="black" stroke-width="0.956522"/>
<rect x="105.088" y="0.478261" width="64.3478" height="43.6957" rx="14.8261" fill="white"/>
<path d="M123.985 22.1336C123.556 21.6132 123.087 21.2459 122.577 21.0317C122.077 20.8174 121.536 20.7103 120.955 20.7103C120.383 20.7103 119.868 20.8174 119.409 21.0317C118.95 21.2459 118.557 21.5724 118.23 22.0112C117.904 22.4397 117.654 22.9906 117.481 23.664C117.307 24.3272 117.22 25.1128 117.22 26.0209C117.22 26.9392 117.292 27.7197 117.435 28.3625C117.588 28.995 117.802 29.5154 118.077 29.9235C118.353 30.3214 118.69 30.6122 119.087 30.7958C119.485 30.9693 119.929 31.056 120.419 31.056C121.205 31.056 121.873 30.8928 122.424 30.5663C122.975 30.2398 123.495 29.7756 123.985 29.1736V22.1336ZM127.765 11.0838V33.8261H125.454C124.954 33.8261 124.638 33.5965 124.505 33.1374L124.184 31.6223C123.551 32.3467 122.822 32.9334 121.995 33.3823C121.179 33.8312 120.225 34.0557 119.133 34.0557C118.276 34.0557 117.491 33.8771 116.777 33.52C116.062 33.1629 115.445 32.6477 114.925 31.9743C114.415 31.2907 114.017 30.449 113.731 29.4491C113.455 28.4492 113.318 27.3065 113.318 26.0209C113.318 24.8578 113.476 23.7763 113.792 22.7764C114.108 21.7765 114.562 20.9092 115.154 20.1746C115.746 19.44 116.455 18.8687 117.282 18.4605C118.108 18.0422 119.036 17.8331 120.067 17.8331C120.944 17.8331 121.694 17.9708 122.317 18.2463C122.939 18.5218 123.495 18.8942 123.985 19.3635V11.0838H127.765ZM141.612 24.1691C141.612 23.6793 141.54 23.2202 141.398 22.7917C141.265 22.353 141.061 21.9703 140.785 21.6438C140.51 21.3174 140.158 21.0623 139.729 20.8786C139.311 20.6848 138.821 20.5878 138.26 20.5878C137.169 20.5878 136.306 20.899 135.674 21.5214C135.051 22.1438 134.653 23.0263 134.48 24.1691H141.612ZM134.404 26.4494C134.465 27.2554 134.608 27.9543 134.832 28.5461C135.057 29.1277 135.352 29.6123 135.72 30C136.087 30.3775 136.521 30.6632 137.021 30.8571C137.531 31.0407 138.092 31.1325 138.704 31.1325C139.316 31.1325 139.842 31.0611 140.28 30.9183C140.729 30.7754 141.117 30.6173 141.444 30.4438C141.78 30.2704 142.071 30.1123 142.316 29.9694C142.571 29.8266 142.816 29.7552 143.05 29.7552C143.367 29.7552 143.601 29.8725 143.754 30.1072L144.841 31.4845C144.423 31.9743 143.953 32.3875 143.433 32.7242C142.913 33.0507 142.367 33.316 141.796 33.52C141.234 33.7139 140.658 33.8516 140.066 33.9332C139.485 34.0149 138.918 34.0557 138.367 34.0557C137.276 34.0557 136.26 33.8771 135.322 33.52C134.383 33.1527 133.567 32.6171 132.873 31.9131C132.179 31.1989 131.633 30.3214 131.236 29.2807C130.838 28.2298 130.639 27.0157 130.639 25.6383C130.639 24.567 130.812 23.562 131.159 22.6233C131.506 21.6745 132.001 20.8531 132.644 20.1593C133.297 19.4553 134.087 18.8993 135.016 18.4912C135.954 18.083 137.01 17.879 138.184 17.879C139.173 17.879 140.087 18.0371 140.923 18.3534C141.76 18.6697 142.479 19.1339 143.081 19.7461C143.683 20.3481 144.152 21.0929 144.489 21.9805C144.836 22.858 145.009 23.863 145.009 24.9955C145.009 25.5669 144.948 25.9546 144.826 26.1586C144.703 26.3525 144.469 26.4494 144.122 26.4494H134.404ZM161.614 18.1238L155.385 33.8261H151.957L145.728 18.1238H148.85C149.136 18.1238 149.371 18.1902 149.554 18.3228C149.748 18.4554 149.876 18.6238 149.937 18.8278L152.967 27.2146C153.13 27.7044 153.273 28.1839 153.396 28.6532C153.518 29.1226 153.625 29.5919 153.717 30.0612C153.819 29.5919 153.931 29.1226 154.054 28.6532C154.176 28.1839 154.324 27.7044 154.498 27.2146L157.589 18.8278C157.661 18.6238 157.788 18.4554 157.972 18.3228C158.155 18.1902 158.375 18.1238 158.63 18.1238H161.614Z" fill="#081423"/>
<rect x="105.088" y="0.478261" width="64.3478" height="43.6957" rx="14.8261" stroke="black" stroke-width="0.956522"/>
</svg>
